<?xml version="1.0" ?><!DOCTYPE svg  PUBLIC '-//W3C//DTD SVG 1.1//EN'  'http://www.w3.org/Graphics/SVG/1.1/DTD/svg11.dtd'><svg enable-background="new 0 0 512 512" height="512px" id="Layer_1" version="1.1" viewBox="0 0 512 512" width="512px" xml:space="preserve" xmlns="http://www.w3.org/2000/svg" xmlns:xlink="http://www.w3.org/1999/xlink"><path d="M488.264,102.853H23.736c-13.111,0-23.736,9.92-23.736,22.15v262.01c0,12.229,10.625,22.135,23.736,22.135h464.528  c13.111,0,23.736-9.906,23.736-22.135v-262.01C512,112.773,501.373,102.853,488.264,102.853 M476.824,373.972H35.171v-113.88  h441.654V373.972z M476.824,166.347H35.171v-28.319h441.654V166.347z M146.591,296.541H73.353v19.544h73.238V296.541z   M256.067,296.541h-95.475v19.544h95.475V296.541z M270.053,326.486h-196.7v19.542h196.7V326.486z"/></svg>