<?xml version="1.0" ?><svg id="Layer_1" style="enable-background:new 0 0 152 152;" version="1.1" viewBox="0 0 152 152" xml:space="preserve" xmlns="http://www.w3.org/2000/svg" xmlns:xlink="http://www.w3.org/1999/xlink"><style type="text/css">
	.st0{opacity:0.2;fill:#FFFFFF;}
	.st1{fill:#DD4B38;}
	.st2{opacity:0.2;fill:#BE3A26;}
	.st3{opacity:0.1;fill:#FFFFFF;}
	.st4{fill:#FFFFFF;}
	.st5{opacity:0.2;}
	.st6{opacity:0.2;fill:#202020;}
	.st7{fill:#202020;}
</style><g id="XMLID_93_"><path class="st0" d="M140,0H12C5.4,0,0,5.4,0,12v1C0,6.4,5.4,1,12,1h128c6.6,0,12,5.4,12,12v-1   C152,5.4,146.6,0,140,0z" id="XMLID_98_"/><path class="st1" d="M140,152H12c-6.6,0-12-5.4-12-12V12C0,5.4,5.4,0,12,0h128c6.6,0,12,5.4,12,12v128   C152,146.6,146.6,152,140,152z" id="XMLID_97_"/><path class="st2" d="M140,151H12c-6.6,0-12-5.4-12-12v1c0,6.6,5.4,12,12,12h128c6.6,0,12-5.4,12-12v-1   C152,145.6,146.6,151,140,151z" id="XMLID_96_"/><path class="st0" d="M140,0H12C5.4,0,0,5.4,0,12v1C0,6.4,5.4,1,12,1h128c6.6,0,12,5.4,12,12v-1   C152,5.4,146.6,0,140,0z" id="XMLID_95_"/><path class="st3" d="M140,152H76V0l64,0c6.6,0,12,5.4,12,12v128C152,146.6,146.6,152,140,152z" id="XMLID_94_"/></g><g id="XMLID_2_"><path class="st4" d="M113.6,73.5c0,1.4-0.5,2-2,2c-3.3,0-6.6,0-9.9,0c-0.3,0-0.7,0-1.1,0c0,0.4,0,0.7,0,1   c0,3.3,0,6.6,0,9.9c0,1.5-0.5,2.1-2.1,2.1c-0.8,0-1.7,0-2.5,0c-1.2,0-1.8-0.6-1.8-1.8c0-3.4,0-6.8,0-10.1c0-0.3,0-0.6,0-1   c-0.4,0-0.7,0-1,0c-3.3,0-6.6,0-9.9,0c-1.5,0-2.1-0.5-2.1-2.1c0-0.8,0-1.5,0-2.3c0-1.5,0.5-2.1,2-2.1c3.3,0,6.5,0,9.8,0   c0.3,0,0.7,0,1.1,0c0-0.4,0-0.7,0-1c0-3.3,0-6.6,0-10c0-1.5,0.5-2,2-2c0.7,0,1.4,0,2.1,0c1.8,0,2.3,0.5,2.3,2.2c0,3.2,0,6.5,0,9.7   c0,0.3,0,0.6,0,1c0.4,0,0.7,0,1.1,0c3.3,0,6.5,0,9.8,0c1.5,0,2.1,0.5,2.1,2.1C113.6,72,113.6,72.7,113.6,73.5z M82.2,44.7   c-1.1,0.8-2.3,1.6-3.4,2.5c-0.8,0.6-1.5,1-2.5,0.8c-0.2,0-0.4,0-0.6,0c0.1,0.2,0.1,0.3,0.2,0.3c4,5.5,4.9,14.6-2.7,20.9   c-0.9,0.7-1.8,1.4-2.6,2.2c-1.2,1.1-1.8,2.6-0.2,4.2c1.1,1.1,2.3,2.2,3.5,3.2c0.6,0.6,1.3,1,2,1.5c7,5.3,7.3,15.6,3.1,21   c-2.5,3.3-5.8,5.5-9.7,6.6c-7.7,2.3-15.3,1.7-22.7-1.5c-1.5-0.6-2.9-1.6-4.1-2.6c-4-3.3-5-8-2.8-12.8c2.1-4.5,5.7-7.3,10.2-9.2   c2.9-1.2,5.9-1.8,9-1.9c0.3,0,0.6,0,1.1,0c-1-2-1.3-4-0.8-6c-1.3-0.2-2.6-0.3-3.9-0.6c-7.8-1.8-12.8-8.5-12.3-16.5   c0.2-3.6,1.9-6.6,4.4-9.2c3.9-4,8.8-6.1,14.4-6.2c6.6-0.1,13.2,0,19.7,0c0.9,0,1.5,0.2,1.8,1.1C83.3,43.5,83.1,44.1,82.2,44.7z    M51.6,88.4c-1.3,1-2.3,2.3-2.7,4c-0.7,3.2,0.6,5.8,3,7.8c2.7,2.3,6,2.9,9.5,2.8c0.6,0,1.2,0,1.8-0.1c2.3-0.2,4.6-0.8,6.7-2   c3.6-2.1,5.1-8.7,0.8-11.8c-1.5-1.1-3-2.2-4.6-3.3c-0.2-0.1-0.3-0.2-0.5-0.2C60.5,84.4,55.8,85.2,51.6,88.4z M67.2,54.1   c-1.1-2.5-2.8-4.6-5.4-5.8c-3.3-1.6-6.4-0.4-7.9,2.8c-0.7,1.5-1,3-0.9,4.6c0.1,4.3,1.6,8,4.8,10.9c1.1,1,2.4,1.8,4,2   c2.7,0.4,5-1,6.2-3.9C69.2,61.2,68.8,57.6,67.2,54.1z" id="XMLID_88_"/><g class="st5" id="XMLID_23_"><path class="st4" d="M42.8,58c0.2-3.6,1.9-6.6,4.4-9.2c3.9-4,8.8-6.1,14.4-6.2c6.6-0.1,13.2,0,19.7,0    c0.9,0,1.5,0.2,1.8,1.1c0.1-0.3,0.1-0.6,0-1c-0.3-0.9-1-1.1-1.8-1.1c-6.6,0-13.2-0.1-19.7,0c-5.6,0.1-10.4,2.1-14.4,6.2    c-2.5,2.5-4.2,5.6-4.4,9.2c0,0.6,0,1.1,0,1.7C42.8,58.4,42.8,58.2,42.8,58z" id="XMLID_87_"/><path class="st4" d="M100.7,70.1c0.4,0,0.7,0,1.1,0c3.3,0,6.5,0,9.8,0c1.5,0,2.1,0.5,2.1,2c0-0.3,0-0.7,0-1    c0-1.5-0.5-2.1-2.1-2.1c-3.3,0-6.5,0-9.8,0c-0.3,0-0.6,0-1.1,0C100.7,69.4,100.7,69.7,100.7,70.1z" id="XMLID_31_"/><path class="st4" d="M76.3,49c-0.2,0-0.3,0-0.6,0c0.1,0.2,0.1,0.3,0.2,0.3c1.7,2.4,2.8,5.4,3,8.6    C78.9,54.7,77.9,51.5,76.3,49z" id="XMLID_30_"/><path class="st4" d="M57.7,67.7c1.1,1,2.4,1.8,4,2c2.7,0.4,5-1,6.2-3.9c0.6-1.6,0.9-3.3,0.8-4.9    c-0.1,1.3-0.3,2.6-0.8,3.9c-1.1,2.9-3.4,4.3-6.2,3.9c-1.5-0.2-2.8-1-4-2c-3.1-2.9-4.6-6.5-4.8-10.6c0,0.2,0,0.4,0,0.7    C53,61,54.5,64.8,57.7,67.7z" id="XMLID_29_"/><path class="st4" d="M81.4,71.2c0,0.3,0,0.7,0,1c0-1.5,0.5-2.1,2-2.1c3.3,0,6.5,0,9.8,0c0.3,0,0.7,0,1.1,0    c0-0.4,0-0.7,0-1c0-3.3,0-6.6,0-10c0-1.5,0.5-2,2-2c0.7,0,1.4,0,2.1,0c1.8,0,2.3,0.5,2.3,2.2c0,3.2,0,6.5,0,9.7c0-0.4,0-0.7,0-1    c0-3.2,0-6.5,0-9.7c0-1.7-0.5-2.2-2.3-2.2c-0.7,0-1.4,0-2.1,0c-1.5,0-2,0.5-2,2c0,3.3,0,6.6,0,10c0,0.3,0,0.6,0,1    c-0.4,0-0.8,0-1.1,0c-3.3,0-6.5,0-9.8,0C81.9,69.1,81.4,69.7,81.4,71.2z" id="XMLID_28_"/><path class="st4" d="M75.7,80.5c-0.7-0.5-1.4-1-2-1.5c-1.2-1.1-2.4-2.1-3.5-3.2c-0.5-0.5-0.8-1-0.9-1.5    c-0.2,0.8,0,1.6,0.9,2.5c1.1,1.1,2.3,2.2,3.5,3.2c0.6,0.6,1.3,1,2,1.5c3.9,2.9,5.7,7.4,5.8,11.7C81.7,88.6,79.9,83.6,75.7,80.5z" id="XMLID_27_"/><path class="st4" d="M58.8,75c-0.1,0.5-0.1,1,0,1.5c0-0.5,0.1-0.9,0.2-1.4C58.9,75.1,58.9,75.1,58.8,75z" id="XMLID_26_"/><path class="st4" d="M39.5,92.2c2.1-4.5,5.7-7.3,10.2-9.2c2.9-1.2,5.9-1.8,9-1.9c0.3,0,0.6,0,1.1,0    c-0.2-0.3-0.3-0.7-0.5-1c-0.2,0-0.5,0-0.7,0c-3.1,0.1-6.1,0.7-9,1.9c-4.5,1.9-8.1,4.7-10.2,9.2c-0.8,1.8-1.2,3.6-1.1,5.3    C38.5,95.1,38.8,93.6,39.5,92.2z" id="XMLID_25_"/><path class="st4" d="M51.9,101.2c2.7,2.3,6,2.9,9.5,2.8c0.6,0,1.2,0,1.8-0.1c2.3-0.2,4.6-0.8,6.7-2    c2.2-1.3,3.6-4.2,3.4-7c-0.2,2.5-1.5,4.9-3.4,6c-2.1,1.2-4.3,1.7-6.7,2c-0.6,0.1-1.2,0.1-1.8,0.1c-3.5,0.1-6.7-0.5-9.5-2.8    c-1.9-1.5-3-3.4-3.2-5.6C48.6,97.3,49.8,99.5,51.9,101.2z" id="XMLID_24_"/></g><path class="st6" d="M47.1,48.8c3.9-4,8.8-6.1,14.4-6.2c6.6-0.1,13.2,0,19.7,0c0.9,0,1.5,0.2,1.8,1.1   c0.1-0.3,0.1-0.6,0-1c0,0,0,0,0,0c-0.2-0.6-0.7-0.9-1.2-1.1c0,0,0,0-0.1,0c-0.1,0-0.2,0-0.2,0c-0.1,0-0.2,0-0.3,0   c-6.6,0-13.2-0.1-19.7,0c-5.6,0.1-10.4,2.1-14.4,6.2c-2.5,2.5-4.2,5.6-4.4,9.2c0,0.6,0,1.1,0,1.7c0-0.2,0-0.4,0-0.7   C43,54.3,44.6,51.3,47.1,48.8z" id="XMLID_22_"/><g class="st5" id="XMLID_3_"><path class="st7" d="M67.2,54.1c-1.1-2.5-2.8-4.6-5.4-5.8c-3.3-1.6-6.4-0.4-7.9,2.8c-0.7,1.5-1,3-0.9,4.6    c0,0.1,0,0.2,0,0.3c0.1-1.4,0.3-2.7,0.9-4c1.5-3.3,4.7-4.4,7.9-2.8c2.6,1.2,4.2,3.3,5.4,5.8c0.9,1.9,1.4,3.9,1.5,5.8    C68.8,58.6,68.2,56.3,67.2,54.1z" id="XMLID_21_"/><path class="st7" d="M70.7,89.1c-1.5-1.1-3-2.2-4.6-3.3c-0.2-0.1-0.3-0.2-0.5-0.2c-5.1-1.2-9.8-0.5-14,2.8    c-1.3,1-2.3,2.3-2.7,4c-0.2,0.8-0.2,1.5-0.2,2.1c0-0.4,0.1-0.8,0.2-1.1c0.4-1.7,1.4-3,2.7-4c4.2-3.3,8.9-4,14-2.8    c0.2,0,0.4,0.1,0.5,0.2c1.5,1.1,3,2.2,4.6,3.3c1.7,1.2,2.5,3,2.6,4.8C73.4,92.8,72.7,90.6,70.7,89.1z" id="XMLID_20_"/><path class="st7" d="M73.1,69.2c-0.9,0.7-1.8,1.4-2.6,2.2c-0.8,0.8-1.3,1.7-1.1,2.7c0.2-0.6,0.6-1.2,1.1-1.7    c0.8-0.8,1.7-1.5,2.6-2.2c4.3-3.6,5.9-8,5.7-12.3C78.7,61.9,77.1,66,73.1,69.2z" id="XMLID_19_"/><path class="st7" d="M59.4,80.1c0.1,0,0.3,0,0.5,0c-0.6-1.2-1-2.4-1-3.6C58.7,77.7,58.9,78.9,59.4,80.1z" id="XMLID_18_"/><path class="st7" d="M83.1,43.7C83.1,43.7,83.1,43.7,83.1,43.7c-0.1,0.3-0.4,0.6-0.9,1c-1.1,0.8-2.3,1.6-3.4,2.5    c-0.8,0.6-1.5,1-2.5,0.8c-0.2,0-0.4,0-0.6,0c0.1,0.2,0.1,0.3,0.2,0.3c0.1,0.2,0.3,0.4,0.4,0.6c0,0,0,0,0.1,0    c1,0.1,1.8-0.2,2.5-0.8c1.1-0.9,2.2-1.6,3.4-2.5C83.1,45.1,83.3,44.5,83.1,43.7z" id="XMLID_17_"/><path class="st7" d="M55.1,74.4c1.2,0.3,2.5,0.4,3.7,0.6c0-0.3,0.1-0.6,0.2-1c-1.3-0.2-2.6-0.3-3.9-0.6    c-7.2-1.7-12.1-7.6-12.3-14.8C42.6,66.3,47.5,72.6,55.1,74.4z" id="XMLID_16_"/><path class="st7" d="M94.4,75.5c-0.4,0-0.7,0-1,0c-3.3,0-6.6,0-9.9,0c-1.5,0-2.1-0.5-2.1-2.1c0,0.3,0,0.7,0,1    c0,1.5,0.5,2.1,2.1,2.1c3.3,0,6.6,0,9.9,0c0.3,0,0.6,0,1,0C94.4,76.2,94.4,75.9,94.4,75.5z" id="XMLID_15_"/><path class="st7" d="M113.6,73.5c0,1.4-0.5,2-2,2c-3.3,0-6.6,0-9.9,0c-0.3,0-0.7,0-1.1,0c0,0.4,0,0.7,0,1    c0,3.3,0,6.6,0,9.9c0,1.5-0.5,2.1-2.1,2.1c-0.8,0-1.7,0-2.5,0c-1.2,0-1.8-0.6-1.8-1.8c0-3.4,0-6.8,0-10.1c0,0.4,0,0.7,0,1    c0,3.4,0,6.8,0,10.1c0,1.2,0.6,1.8,1.8,1.8c0.8,0,1.7,0,2.5,0c1.5,0,2.1-0.5,2.1-2.1c0-3.3,0-6.6,0-9.9c0-0.3,0-0.6,0-1    c0.4,0,0.7,0,1.1,0c3.3,0,6.6,0,9.9,0c1.4,0,2-0.6,2-2c0-0.8,0-1.6,0-2.3c0,0,0,0,0,0C113.6,72.6,113.6,73.1,113.6,73.5z" id="XMLID_14_"/><path class="st7" d="M78.9,101.4c-2.5,3.3-5.8,5.5-9.7,6.6c-7.7,2.3-15.3,1.7-22.7-1.5c-1.5-0.6-2.9-1.6-4.1-2.6    c-2.5-2.1-3.8-4.6-3.9-7.4c-0.2,3.2,1.2,6.1,3.9,8.4c1.2,1,2.7,2,4.1,2.6c7.4,3.2,15,3.8,22.7,1.5c3.9-1.1,7.2-3.3,9.7-6.6    c1.9-2.4,2.8-5.8,2.7-9.3C81.5,96.3,80.6,99.3,78.9,101.4z" id="XMLID_7_"/></g></g></svg>